<?xml version="1.0" encoding="UTF-8" ?>
<!DOCTYPE svg PUBLIC "-//W3C//DTD SVG 1.1//EN" "http://www.w3.org/Graphics/SVG/1.1/DTD/svg11.dtd">
<svg width="1024pt" height="1024pt" viewBox="0 0 1024 1024" version="1.1" xmlns="http://www.w3.org/2000/svg">
<g id="#f9f8f6ff">
<path fill="#f9f8f6" opacity="1.00" d=" M 201.70 143.73 C 203.84 142.12 206.33 143.66 208.33 144.70 C 215.63 148.81 222.87 153.02 230.16 157.15 C 220.41 163.13 210.31 168.58 200.90 175.10 C 192.24 169.88 183.38 165.00 174.77 159.69 C 183.73 154.34 192.71 149.02 201.70 143.73 Z" />
<path fill="#f9f8f6" opacity="1.00" d=" M 237.65 163.58 C 239.02 162.29 240.60 163.45 241.93 164.16 C 262.65 176.12 283.43 187.96 304.14 199.92 C 306.69 201.45 309.61 202.97 310.68 205.96 C 279.24 224.82 247.43 243.07 215.90 261.79 C 201.87 270.16 187.74 278.35 173.66 286.64 C 166.34 290.94 158.90 295.08 152.03 300.09 C 147.92 293.88 140.82 291.05 134.67 287.38 C 116.66 277.06 98.76 266.54 80.79 256.16 C 88.27 251.88 95.56 247.25 102.99 242.88 C 112.16 248.13 121.32 253.38 130.53 258.56 C 133.51 260.17 136.45 262.31 139.99 262.30 C 144.30 262.78 148.54 261.41 152.20 259.21 C 179.13 243.15 206.03 227.03 233.05 211.12 C 235.84 209.28 239.15 207.35 240.01 203.87 C 241.00 200.18 240.14 195.38 236.51 193.42 C 228.13 188.31 219.03 184.56 210.39 179.92 C 219.15 173.97 228.50 168.91 237.65 163.58 Z" />
<path fill="#f9f8f6" opacity="1.00" d=" M 168.35 166.93 C 180.31 173.37 191.79 180.67 203.69 187.23 C 205.01 187.94 206.25 188.81 207.42 189.76 C 178.62 206.44 150.09 223.56 121.49 240.57 C 120.69 240.95 119.75 241.77 118.86 241.07 C 106.62 234.25 94.60 227.00 82.49 219.93 C 104.40 206.63 126.70 193.96 148.70 180.81 C 155.50 176.57 163.47 173.59 168.35 166.93 Z" />
<path fill="#f9f8f6" opacity="1.00" d=" M 128.70 247.15 C 158.39 229.33 188.30 211.86 217.96 193.98 C 222.37 196.18 226.83 198.33 230.97 201.03 C 204.70 217.17 178.10 232.76 151.65 248.61 C 148.25 250.43 145.07 253.04 141.16 253.63 C 136.76 252.02 132.82 249.35 128.70 247.15 Z" />
<path fill="#f9f8f6" opacity="1.00" d=" M 165.33 302.33 C 214.81 273.40 264.12 244.18 313.58 215.23 C 316.41 218.55 320.03 221.04 323.79 223.18 C 365.91 247.76 408.26 271.94 450.33 296.60 C 518.33 336.17 586.07 376.19 653.83 416.16 C 713.14 451.07 771.99 486.76 831.21 521.81 C 834.63 523.87 838.18 525.74 841.47 528.03 C 815.07 545.30 788.05 561.58 761.31 578.31 C 736.88 593.59 712.38 608.76 687.81 623.82 C 686.54 624.57 684.98 625.67 683.67 624.37 C 652.56 605.80 621.51 587.14 590.48 568.44 C 554.47 546.43 518.13 524.95 482.19 502.81 C 403.72 455.28 325.84 406.77 246.83 360.11 C 243.66 358.36 240.85 355.96 237.52 354.51 C 234.52 353.08 230.93 356.66 232.17 359.69 C 233.54 363.20 237.27 364.82 240.16 366.89 C 262.20 380.19 284.37 393.26 306.41 406.56 C 323.61 416.57 340.26 427.48 357.38 437.63 C 390.62 457.67 423.40 478.46 456.78 498.26 C 486.81 516.56 516.68 535.14 546.95 553.07 C 566.42 564.46 585.58 576.35 604.82 588.13 C 638.60 608.41 672.43 628.62 706.39 648.62 C 722.53 658.51 739.30 667.40 755.00 678.01 C 764.21 683.90 772.34 691.72 777.72 701.31 C 782.03 709.01 785.90 717.18 787.18 726.00 C 789.54 737.94 785.68 750.72 790.84 762.17 C 794.99 771.28 801.12 779.29 805.97 788.02 C 809.61 794.82 815.45 801.14 823.33 802.65 C 829.05 804.20 834.50 801.08 839.18 798.17 C 875.78 775.82 912.33 753.40 948.70 730.69 C 960.52 723.19 972.92 716.48 984.00 707.86 C 983.94 713.23 984.11 718.60 983.91 723.97 C 983.17 729.59 978.23 733.01 973.76 735.70 C 938.70 757.31 903.59 778.85 868.55 800.50 C 852.30 811.07 835.55 820.83 819.01 830.93 C 812.14 835.43 803.00 834.94 795.98 831.04 C 789.60 827.45 783.32 823.70 777.05 819.94 C 701.45 774.82 625.54 730.21 550.07 684.86 C 485.19 645.81 420.40 606.61 355.58 567.46 C 319.92 546.03 284.13 524.85 248.41 503.54 C 217.30 485.24 186.42 466.51 155.06 448.65 C 154.92 402.46 155.04 356.26 155.00 310.07 C 158.03 306.98 161.59 304.49 165.33 302.33 M 412.29 295.13 C 407.84 296.72 404.06 299.63 400.03 302.01 C 364.74 323.48 329.36 344.81 293.77 365.78 C 292.08 366.85 290.48 368.71 290.98 370.87 C 291.55 372.78 293.13 374.16 294.77 375.18 C 383.70 429.29 472.58 483.47 561.52 537.57 C 597.82 559.56 634.28 581.29 670.42 603.54 C 676.17 607.31 684.13 607.73 689.96 603.92 C 726.74 581.45 763.23 558.51 800.05 536.10 C 802.41 534.45 805.54 532.33 805.06 529.02 C 805.11 525.80 802.01 523.94 799.60 522.45 C 675.41 446.95 550.27 373.02 425.32 298.77 C 421.37 296.63 416.91 294.34 412.29 295.13 M 173.42 306.43 C 169.76 307.42 168.58 312.97 172.15 314.89 C 189.29 325.52 206.85 335.49 224.14 345.91 C 225.69 346.71 227.18 347.81 228.94 348.08 C 231.39 347.84 233.58 345.62 233.08 343.05 C 233.27 340.56 230.80 339.15 229.04 337.93 C 212.04 327.97 195.13 317.85 178.23 307.74 C 176.75 307.08 175.10 305.66 173.42 306.43 M 391.39 500.48 C 382.82 502.79 375.68 509.57 373.01 518.05 C 369.93 527.21 371.67 537.19 374.87 546.07 C 381.02 562.17 393.65 575.16 408.50 583.57 C 425.38 593.65 442.19 603.85 459.02 614.00 C 493.88 635.18 529.03 655.89 563.78 677.26 C 572.37 682.63 581.41 687.89 591.63 689.30 C 597.64 690.70 603.97 689.10 609.36 686.34 C 617.81 682.00 623.56 672.55 623.04 663.02 C 623.43 651.11 618.61 639.60 612.18 629.78 C 603.22 616.69 589.97 607.32 576.24 599.76 C 523.76 568.29 471.38 536.65 418.98 505.03 C 410.76 500.22 400.73 498.19 391.39 500.48 Z" />
<path fill="#f9f8f6" opacity="1.00" d=" M 65.65 223.57 C 67.54 222.07 69.62 223.75 71.38 224.58 C 78.98 228.87 86.57 233.19 94.09 237.62 C 86.80 241.74 79.80 246.33 72.54 250.48 C 70.35 251.88 67.74 253.21 66.78 255.82 C 65.63 258.04 66.05 260.59 65.99 262.99 C 66.01 307.34 65.99 351.70 66.00 396.05 C 61.17 392.87 56.11 390.01 51.54 386.44 C 39.16 376.66 30.23 361.98 29.02 346.08 C 28.99 314.03 28.99 281.99 29.02 249.94 C 28.83 246.04 31.70 242.97 34.85 241.11 C 42.36 245.68 49.93 250.19 57.59 254.51 C 60.44 256.40 64.28 253.12 63.48 250.02 C 63.39 247.41 60.98 246.13 59.06 244.90 C 54.10 241.91 49.01 239.14 44.18 235.95 C 51.19 231.59 58.48 227.68 65.65 223.57 Z" />
<path fill="#f9f8f6" opacity="1.00" d=" M 75.00 263.03 C 94.77 275.45 115.21 286.81 135.37 298.60 C 139.93 301.04 145.85 303.95 145.95 309.93 C 146.05 354.29 145.99 398.64 145.98 443.00 C 122.61 429.38 99.42 415.48 76.05 401.86 C 74.55 401.22 75.17 399.31 75.00 398.07 C 75.00 353.06 75.00 308.05 75.00 263.03 Z" />
<path fill="#f9f8f6" opacity="1.00" d=" M 410.31 306.40 C 412.83 304.39 416.36 304.12 419.06 305.95 C 446.63 322.84 474.48 339.27 502.39 355.57 C 599.73 412.74 696.41 471.01 793.15 529.17 C 757.71 551.46 721.90 573.16 686.34 595.27 C 683.60 597.27 679.69 598.29 676.66 596.30 C 664.14 588.89 652.01 580.83 639.48 573.43 C 607.33 553.90 574.90 534.84 542.80 515.23 C 476.27 474.78 409.54 434.64 343.32 393.68 C 330.44 385.76 317.35 378.16 304.60 370.02 C 321.18 360.59 337.47 350.65 353.81 340.82 C 372.63 329.33 391.66 318.17 410.31 306.40 M 414.26 337.16 C 411.19 338.24 408.42 339.97 405.67 341.68 C 390.43 351.07 375.19 360.47 359.95 369.87 C 358.19 371.20 355.61 372.49 355.71 375.04 C 355.44 378.96 360.01 379.78 362.62 381.47 C 379.34 390.60 395.57 400.65 412.23 409.90 C 415.29 411.60 418.78 410.36 421.47 408.56 C 437.58 398.73 453.67 388.86 469.42 378.45 C 471.85 376.60 475.25 375.21 475.94 371.91 C 475.85 368.76 473.05 366.85 470.61 365.44 C 456.08 356.95 441.48 348.59 427.05 339.95 C 423.24 337.59 418.73 336.19 414.26 337.16 M 499.00 401.14 C 499.02 402.50 498.49 404.34 499.73 405.34 C 501.27 407.15 503.86 406.42 505.90 406.24 C 512.30 405.21 519.60 407.14 523.70 412.39 C 525.60 415.29 526.59 418.67 528.44 421.60 C 532.91 428.25 540.89 432.65 548.98 432.03 C 554.12 432.12 559.97 431.08 564.23 434.71 C 570.36 438.97 570.10 447.62 575.66 452.35 C 581.93 458.82 591.38 460.33 600.01 460.08 C 605.65 459.95 609.18 466.05 614.86 465.09 C 616.92 463.43 617.67 460.83 616.87 458.30 C 614.81 455.10 611.19 453.50 607.80 452.12 C 600.36 449.17 591.55 451.82 584.64 447.24 C 579.86 444.70 578.97 438.92 576.56 434.57 C 572.66 426.81 563.71 421.86 555.06 422.84 C 549.06 423.47 542.37 422.47 537.90 418.10 C 534.32 414.27 534.18 408.34 530.30 404.71 C 523.71 398.40 514.05 395.93 505.13 397.12 C 502.82 397.81 499.84 398.55 499.00 401.14 M 468.24 419.21 C 466.44 420.09 464.91 421.92 464.95 424.00 C 464.64 426.23 466.69 427.69 468.24 428.90 C 474.11 429.19 480.45 428.04 485.81 431.17 C 490.56 433.50 492.79 438.52 495.00 443.02 C 497.95 449.18 504.16 453.74 511.03 454.27 C 517.01 455.11 523.67 453.34 529.00 457.02 C 535.86 461.05 536.18 470.08 541.78 475.23 C 545.95 479.02 551.32 481.46 556.94 481.98 C 561.50 482.20 566.30 481.32 570.57 483.42 C 574.25 484.53 576.72 488.77 580.89 488.05 C 584.53 487.86 586.16 482.95 583.83 480.29 C 580.60 476.80 576.02 474.85 571.59 473.38 C 565.32 471.31 558.39 473.42 552.28 470.75 C 548.71 469.16 546.10 465.87 544.78 462.26 C 542.06 454.64 535.43 448.89 528.04 445.98 C 521.95 443.53 515.06 446.47 509.01 443.98 C 504.16 441.70 502.52 436.28 500.04 431.97 C 496.20 424.18 487.31 419.88 478.89 419.70 C 475.37 419.31 471.76 418.49 468.24 419.21 M 651.42 490.39 C 640.35 495.16 631.21 505.19 629.25 517.30 C 628.39 524.07 629.02 531.36 632.57 537.33 C 640.81 554.98 663.75 561.49 681.39 555.42 C 693.29 551.55 703.43 541.72 706.37 529.39 C 708.01 521.56 707.17 513.13 703.21 506.10 C 693.37 488.51 669.35 482.18 651.42 490.39 Z" />
<path fill="#f9f8f6" opacity="1.00" d=" M 405.19 352.57 C 409.25 350.56 412.87 347.67 417.11 346.03 C 418.44 346.24 419.71 346.74 421.00 347.15 C 419.18 348.63 417.06 349.97 416.01 352.16 C 414.98 355.71 419.08 358.84 422.34 357.37 C 425.47 357.04 427.11 354.18 428.88 351.97 C 432.53 354.18 436.19 356.36 439.93 358.42 C 436.63 361.24 432.25 362.16 428.01 362.09 C 423.21 362.88 417.64 365.00 415.74 369.89 C 414.50 372.45 415.95 375.23 416.13 377.86 C 412.32 379.82 407.77 379.04 403.90 380.85 C 400.00 382.50 395.68 385.27 395.69 390.04 C 393.60 388.85 391.44 387.79 389.47 386.41 C 388.26 384.59 388.87 382.18 388.91 380.12 C 394.37 378.52 400.44 378.74 405.39 375.55 C 410.36 372.86 413.33 367.05 412.50 361.47 C 411.72 357.43 408.47 354.69 405.19 352.57 Z" />
<path fill="#f9f8f6" opacity="1.00" d=" M 394.69 359.70 C 397.43 357.35 400.74 360.37 402.60 362.44 C 404.06 364.69 401.37 366.58 399.78 367.76 C 394.73 371.57 387.42 369.31 382.66 373.63 C 380.51 375.18 379.86 377.83 379.08 380.20 C 375.90 378.51 372.75 376.76 369.67 374.89 C 377.76 369.44 386.38 364.81 394.69 359.70 Z" />
<path fill="#f9f8f6" opacity="1.00" d=" M 435.96 370.15 C 440.97 369.99 445.34 367.07 448.97 363.84 C 453.46 366.72 458.26 369.08 462.75 371.97 C 458.57 374.63 454.38 377.27 450.16 379.86 C 445.72 377.86 440.90 376.47 436.00 376.96 C 434.25 376.76 433.12 378.26 431.86 379.17 C 432.00 380.52 431.79 382.05 432.78 383.16 C 434.46 385.62 437.75 384.92 440.30 385.29 C 439.47 386.47 438.21 387.20 437.00 387.93 C 429.69 392.33 422.55 397.03 415.10 401.19 C 411.54 398.99 407.81 397.08 404.26 394.87 C 404.65 392.26 405.76 389.31 408.68 388.73 C 413.80 387.56 420.16 388.40 423.85 383.82 C 426.87 380.58 425.33 376.07 424.90 372.22 C 428.19 370.17 432.26 370.61 435.96 370.15 Z" />
<path fill="#f9f8f6" opacity="1.00" d=" M 394.39 509.49 C 401.32 507.80 408.71 509.64 414.68 513.39 C 450.54 534.77 486.10 556.66 522.04 577.94 C 541.22 589.39 560.21 601.17 579.37 612.66 C 593.97 621.34 607.10 634.24 611.98 650.91 C 613.49 656.69 615.24 663.06 612.81 668.84 C 610.69 675.05 604.65 679.59 598.12 679.97 C 588.06 680.70 578.92 675.38 570.70 670.24 C 517.07 637.88 463.35 605.68 409.79 573.21 C 395.91 564.66 384.69 550.98 381.21 534.84 C 380.71 529.96 380.25 524.75 382.26 520.13 C 384.29 514.90 389.08 511.06 394.39 509.49 M 418.43 528.37 C 417.49 529.34 416.75 530.54 416.98 531.96 C 417.01 542.66 416.99 553.36 416.99 564.05 C 417.02 566.86 417.99 570.01 420.53 571.54 C 422.63 572.87 426.58 572.08 426.22 568.94 C 426.28 557.62 425.97 546.28 426.62 534.97 C 426.82 533.17 426.20 531.41 425.21 529.95 C 424.08 527.35 420.62 527.54 418.43 528.37 M 433.92 539.11 C 433.55 551.08 433.82 563.06 433.90 575.03 C 433.35 579.72 440.31 583.28 443.04 578.80 C 442.94 566.55 443.04 554.30 443.01 542.05 C 442.80 537.68 436.54 534.95 433.92 539.11 M 452.52 548.39 C 449.93 549.35 450.23 552.68 450.11 554.94 C 450.38 565.56 449.72 576.22 450.35 586.82 C 450.62 590.65 454.13 592.95 457.80 592.09 C 458.49 591.29 459.17 590.50 459.86 589.71 C 459.67 577.52 459.87 565.33 459.81 553.15 C 459.67 549.75 455.71 546.79 452.52 548.39 M 467.20 561.02 C 467.38 572.87 466.78 584.76 467.49 596.60 C 467.40 600.64 471.31 602.81 474.97 602.12 C 476.31 600.38 476.79 598.19 476.73 596.03 C 476.79 585.33 476.81 574.64 476.85 563.94 C 477.03 560.79 474.79 557.93 471.80 557.10 C 469.46 556.66 466.97 558.51 467.20 561.02 M 486.22 567.01 C 484.71 568.18 483.83 570.02 484.00 571.95 C 484.00 582.98 483.98 594.02 484.01 605.05 C 483.93 608.73 486.80 612.93 490.90 612.05 C 493.05 612.29 493.49 609.57 493.54 607.99 C 493.56 596.33 493.51 584.66 493.66 573.00 C 493.79 569.10 490.02 565.96 486.22 567.01 M 500.94 578.05 C 501.10 590.67 500.91 603.30 501.03 615.93 C 501.54 618.80 503.89 621.59 506.99 621.62 C 508.29 621.47 510.25 620.53 510.02 618.96 C 509.96 606.01 510.06 593.07 509.98 580.12 C 508.95 576.45 503.26 574.12 500.94 578.05 M 519.17 587.20 C 518.73 589.10 518.41 591.03 518.46 593.00 C 518.50 603.34 518.59 613.68 518.40 624.02 C 518.36 626.12 518.53 628.37 519.78 630.16 C 521.06 632.16 524.31 632.84 526.10 631.11 C 527.96 629.73 527.55 627.08 527.74 625.06 C 527.74 614.35 527.79 603.65 528.04 592.94 C 528.42 588.39 523.24 584.98 519.17 587.20 M 537.33 598.13 C 536.33 598.84 535.88 599.80 535.98 601.02 C 535.99 613.03 536.02 625.04 535.96 637.05 C 535.49 640.40 538.67 643.57 541.95 643.61 C 543.26 643.34 545.11 642.53 544.99 640.93 C 545.00 627.98 545.02 615.02 544.99 602.07 C 544.84 598.33 540.46 596.64 537.33 598.13 M 552.69 613.94 C 552.88 625.30 552.65 636.66 552.92 648.02 C 552.67 650.53 554.54 652.43 556.15 654.09 C 557.79 653.86 559.88 654.59 561.10 653.12 C 562.36 652.11 561.94 650.43 562.03 649.06 C 561.92 637.08 562.11 625.09 561.95 613.12 C 560.92 610.83 558.80 608.39 556.01 608.94 C 553.49 608.91 552.44 611.81 552.69 613.94 M 569.56 622.08 C 569.35 633.37 569.42 644.68 569.56 655.97 C 569.17 660.08 572.60 664.01 576.87 663.11 C 577.72 661.84 579.19 660.70 579.01 659.01 C 579.01 647.67 578.98 636.33 579.02 624.99 C 579.10 622.65 577.57 620.46 575.62 619.30 C 573.25 618.30 569.48 618.81 569.56 622.08 Z" />
<path fill="#f9f8f6" opacity="1.00" d=" M 851.01 533.83 C 874.30 547.11 897.23 561.03 920.32 574.65 C 929.63 580.57 940.07 585.10 947.75 593.26 C 957.10 602.07 963.57 614.10 964.93 626.95 C 965.42 635.63 965.09 644.34 965.21 653.03 C 965.36 659.84 969.43 665.61 972.49 671.43 C 975.30 676.54 978.51 681.43 981.43 686.49 C 983.21 689.93 984.27 694.61 981.97 698.03 C 978.10 701.22 973.59 703.59 969.67 706.75 C 950.92 695.53 931.92 684.73 913.21 673.46 C 918.41 670.30 923.54 667.01 928.62 663.64 C 930.55 662.16 932.97 660.58 933.26 657.95 C 934.20 653.34 931.56 648.70 927.57 646.47 C 902.01 630.67 876.54 614.70 851.05 598.78 C 850.95 577.13 851.01 555.48 851.01 533.83 Z" />
<path fill="#f9f8f6" opacity="1.00" d=" M 817.08 554.35 C 825.59 549.57 833.66 544.03 842.00 538.94 C 841.97 557.13 842.05 575.32 841.96 593.51 C 834.34 589.02 826.95 584.14 819.33 579.64 C 818.41 578.94 816.76 578.44 817.04 576.98 C 816.97 569.44 816.96 561.89 817.08 554.35 Z" />
<path fill="#f9f8f6" opacity="1.00" d=" M 724.86 611.93 C 752.94 594.55 781.02 577.17 808.94 559.55 C 809.03 564.58 809.00 569.62 808.92 574.66 C 793.81 583.48 779.15 593.08 764.18 602.14 C 745.21 613.85 726.12 625.37 707.23 637.20 C 706.32 637.97 705.30 636.87 704.48 636.55 C 701.21 634.63 697.97 632.67 694.70 630.76 C 704.50 624.11 714.82 618.22 724.86 611.93 Z" />
<path fill="#f9f8f6" opacity="1.00" d=" M 897.65 683.74 C 900.06 682.32 902.22 680.36 904.85 679.40 C 923.43 690.57 942.38 701.15 960.91 712.41 C 918.38 738.32 876.17 764.75 833.68 790.71 C 831.10 792.32 828.12 793.94 824.99 793.24 C 821.47 792.70 818.63 790.19 816.73 787.31 C 812.77 781.50 809.44 775.29 805.60 769.40 C 801.75 763.51 797.83 757.27 797.24 750.06 C 796.83 743.08 797.22 736.07 796.98 729.08 C 796.26 722.86 794.90 716.74 792.80 710.85 C 799.11 714.19 805.07 718.14 811.21 721.77 C 814.42 723.63 817.46 725.95 821.07 726.98 C 824.53 727.23 828.22 727.34 831.20 725.26 C 853.44 711.56 875.50 697.57 897.65 683.74 Z" />
</g>
<g id="#2b3841ff">
<path fill="#2b3841" opacity="1.00" d=" M 200.26 134.26 C 204.44 133.17 208.73 134.49 212.40 136.53 C 244.87 155.02 277.32 173.57 309.67 192.27 C 314.21 195.03 319.22 199.19 319.07 205.00 C 318.95 209.24 323.09 211.73 326.22 213.76 C 405.93 259.98 485.63 306.22 565.04 352.95 C 648.63 402.26 732.23 451.54 815.34 501.66 C 830.82 510.85 846.09 520.38 861.80 529.17 C 883.80 542.17 905.73 555.30 927.82 568.14 C 937.62 574.11 948.05 579.48 955.91 588.06 C 966.06 598.52 972.80 612.38 974.00 626.97 C 974.12 635.92 973.76 644.91 974.18 653.85 C 978.73 667.36 990.09 677.89 992.64 692.19 C 992.93 702.80 992.66 713.44 992.77 724.07 C 992.84 730.24 989.60 736.14 984.62 739.72 C 979.30 743.49 973.53 746.56 968.07 750.10 C 922.13 778.54 876.27 807.11 830.06 835.12 C 825.36 837.86 820.82 841.11 815.48 842.50 C 806.01 844.87 796.04 842.32 787.93 837.17 C 686.13 776.67 584.11 716.52 482.76 655.27 C 413.66 613.75 344.97 571.52 275.56 530.50 C 242.94 511.09 210.30 491.72 177.59 472.44 C 142.88 451.74 107.85 431.58 73.21 410.77 C 62.00 403.76 49.63 398.27 40.14 388.83 C 29.05 378.46 22.05 364.05 20.03 349.05 C 19.97 315.04 20.01 281.02 20.01 247.00 C 20.76 241.58 24.15 236.52 28.98 233.88 C 37.60 228.88 46.21 223.86 54.79 218.78 C 58.64 216.66 62.49 214.05 67.01 213.73 C 69.25 213.33 71.40 214.37 73.62 214.41 C 100.78 197.76 128.60 182.22 155.94 165.88 C 160.57 163.58 160.33 157.22 164.71 154.69 C 173.56 149.09 182.83 144.20 191.74 138.69 C 194.46 137.01 197.20 135.27 200.26 134.26 M 201.70 143.73 C 192.71 149.02 183.73 154.34 174.77 159.69 C 183.38 165.00 192.24 169.88 200.90 175.10 C 210.31 168.58 220.41 163.13 230.16 157.15 C 222.87 153.02 215.63 148.81 208.33 144.70 C 206.33 143.66 203.84 142.12 201.70 143.73 M 237.65 163.58 C 228.50 168.91 219.15 173.97 210.39 179.92 C 219.03 184.56 228.13 188.31 236.51 193.42 C 240.14 195.38 241.00 200.18 240.01 203.87 C 239.15 207.35 235.84 209.28 233.05 211.12 C 206.03 227.03 179.13 243.15 152.20 259.21 C 148.54 261.41 144.30 262.78 139.99 262.30 C 136.45 262.31 133.51 260.17 130.53 258.56 C 121.32 253.38 112.16 248.13 102.99 242.88 C 95.56 247.25 88.27 251.88 80.79 256.16 C 98.76 266.54 116.66 277.06 134.67 287.38 C 140.82 291.05 147.92 293.88 152.03 300.09 C 158.90 295.08 166.34 290.94 173.66 286.64 C 187.74 278.35 201.87 270.16 215.90 261.79 C 247.43 243.07 279.24 224.82 310.68 205.96 C 309.61 202.97 306.69 201.45 304.14 199.92 C 283.43 187.96 262.65 176.12 241.93 164.16 C 240.60 163.45 239.02 162.29 237.65 163.58 M 168.35 166.93 C 163.47 173.59 155.50 176.57 148.70 180.81 C 126.70 193.96 104.40 206.63 82.49 219.93 C 94.60 227.00 106.62 234.25 118.86 241.07 C 119.75 241.77 120.69 240.95 121.49 240.57 C 150.09 223.56 178.62 206.44 207.42 189.76 C 206.25 188.81 205.01 187.94 203.69 187.23 C 191.79 180.67 180.31 173.37 168.35 166.93 M 128.70 247.15 C 132.82 249.35 136.76 252.02 141.16 253.63 C 145.07 253.04 148.25 250.43 151.65 248.61 C 178.10 232.76 204.70 217.17 230.97 201.03 C 226.83 198.33 222.37 196.18 217.96 193.98 C 188.30 211.86 158.39 229.33 128.70 247.15 M 165.33 302.33 C 161.59 304.49 158.03 306.98 155.00 310.07 C 155.04 356.26 154.92 402.46 155.06 448.65 C 186.42 466.51 217.30 485.24 248.41 503.54 C 284.13 524.85 319.92 546.03 355.58 567.46 C 420.40 606.61 485.19 645.81 550.07 684.86 C 625.54 730.21 701.45 774.82 777.05 819.94 C 783.32 823.70 789.60 827.45 795.98 831.04 C 803.00 834.94 812.14 835.43 819.01 830.93 C 835.55 820.83 852.30 811.07 868.55 800.50 C 903.59 778.85 938.70 757.31 973.76 735.70 C 978.23 733.01 983.17 729.59 983.91 723.97 C 984.11 718.60 983.94 713.23 984.00 707.86 C 972.92 716.48 960.52 723.19 948.70 730.69 C 912.33 753.40 875.78 775.82 839.18 798.17 C 834.50 801.08 829.05 804.20 823.33 802.65 C 815.45 801.14 809.61 794.82 805.97 788.02 C 801.12 779.29 794.99 771.28 790.84 762.17 C 785.68 750.72 789.54 737.94 787.18 726.00 C 785.90 717.18 782.03 709.01 777.72 701.31 C 772.34 691.72 764.21 683.90 755.00 678.01 C 739.30 667.40 722.53 658.51 706.39 648.62 C 672.43 628.62 638.60 608.41 604.82 588.13 C 585.58 576.35 566.42 564.46 546.95 553.07 C 516.68 535.14 486.81 516.56 456.78 498.26 C 423.40 478.46 390.62 457.67 357.38 437.63 C 340.26 427.48 323.61 416.57 306.41 406.56 C 284.37 393.26 262.20 380.19 240.16 366.89 C 237.27 364.82 233.54 363.20 232.17 359.69 C 230.93 356.66 234.52 353.08 237.52 354.51 C 240.85 355.96 243.66 358.36 246.83 360.11 C 325.84 406.77 403.72 455.28 482.19 502.81 C 518.13 524.95 554.47 546.43 590.48 568.44 C 621.51 587.14 652.56 605.80 683.67 624.37 C 684.98 625.67 686.54 624.57 687.81 623.82 C 712.38 608.76 736.88 593.59 761.31 578.31 C 788.05 561.58 815.07 545.30 841.47 528.03 C 838.18 525.74 834.63 523.87 831.21 521.81 C 771.99 486.76 713.14 451.07 653.83 416.16 C 586.07 376.19 518.33 336.17 450.33 296.60 C 408.26 271.94 365.91 247.76 323.79 223.18 C 320.03 221.04 316.41 218.55 313.58 215.23 C 264.12 244.18 214.81 273.40 165.33 302.33 M 65.65 223.57 C 58.48 227.68 51.19 231.59 44.18 235.95 C 49.01 239.14 54.10 241.91 59.06 244.90 C 60.98 246.13 63.39 247.41 63.48 250.02 C 64.28 253.12 60.44 256.40 57.59 254.51 C 49.93 250.19 42.36 245.68 34.85 241.11 C 31.70 242.97 28.83 246.04 29.02 249.94 C 28.99 281.99 28.99 314.03 29.02 346.08 C 30.23 361.98 39.16 376.66 51.54 386.44 C 56.11 390.01 61.17 392.87 66.00 396.05 C 65.99 351.70 66.01 307.34 65.99 262.99 C 66.05 260.59 65.63 258.04 66.78 255.82 C 67.74 253.21 70.35 251.88 72.54 250.48 C 79.80 246.33 86.80 241.74 94.09 237.62 C 86.57 233.19 78.98 228.87 71.38 224.58 C 69.62 223.75 67.54 222.07 65.65 223.57 M 75.00 263.03 C 75.00 308.05 75.00 353.06 75.00 398.07 C 75.17 399.31 74.55 401.22 76.05 401.86 C 99.42 415.48 122.61 429.38 145.98 443.00 C 145.99 398.64 146.05 354.29 145.95 309.93 C 145.85 303.95 139.93 301.04 135.37 298.60 C 115.21 286.81 94.77 275.45 75.00 263.03 M 851.01 533.83 C 851.01 555.48 850.95 577.13 851.05 598.78 C 876.54 614.70 902.01 630.67 927.57 646.47 C 931.56 648.70 934.20 653.34 933.26 657.95 C 932.97 660.58 930.55 662.16 928.62 663.64 C 923.54 667.01 918.41 670.30 913.21 673.46 C 931.92 684.73 950.92 695.53 969.67 706.75 C 973.59 703.59 978.10 701.22 981.97 698.03 C 984.27 694.61 983.21 689.93 981.43 686.49 C 978.51 681.43 975.30 676.54 972.49 671.43 C 969.43 665.61 965.36 659.84 965.21 653.03 C 965.09 644.34 965.42 635.63 964.93 626.95 C 963.57 614.10 957.10 602.07 947.75 593.26 C 940.07 585.10 929.63 580.57 920.32 574.65 C 897.23 561.03 874.30 547.11 851.01 533.83 M 817.08 554.35 C 816.96 561.89 816.97 569.44 817.04 576.98 C 816.76 578.44 818.41 578.94 819.33 579.64 C 826.95 584.14 834.34 589.02 841.96 593.51 C 842.05 575.32 841.97 557.13 842.00 538.94 C 833.66 544.03 825.59 549.57 817.08 554.35 M 724.86 611.93 C 714.82 618.22 704.50 624.11 694.70 630.76 C 697.97 632.67 701.21 634.63 704.48 636.55 C 705.30 636.87 706.32 637.97 707.23 637.20 C 726.12 625.37 745.21 613.85 764.18 602.14 C 779.15 593.08 793.81 583.48 808.92 574.66 C 809.00 569.62 809.03 564.58 808.94 559.55 C 781.02 577.17 752.94 594.55 724.86 611.93 M 809.08 585.08 C 778.82 603.86 748.55 622.63 718.18 641.23 C 717.22 641.69 715.12 643.19 716.88 644.09 C 730.29 651.98 743.63 659.99 756.95 668.04 C 762.50 671.36 767.44 675.56 772.60 679.42 C 773.56 680.33 774.74 679.16 775.68 678.81 C 784.09 673.90 792.29 668.63 800.56 663.48 C 823.01 649.03 845.68 634.91 868.34 620.81 C 866.40 618.90 864.01 617.59 861.69 616.24 C 844.76 605.96 827.86 595.63 811.18 584.95 C 810.45 584.43 809.75 584.48 809.08 585.08 M 867.21 632.48 C 882.90 642.15 898.62 651.79 914.13 661.76 C 917.44 659.54 921.04 657.67 924.06 655.05 C 922.31 653.03 919.49 652.24 917.31 650.74 C 903.86 642.46 890.47 634.08 876.98 625.86 C 873.66 627.98 870.37 630.14 867.21 632.48 M 849.87 643.39 C 865.31 652.95 880.61 662.76 896.17 672.12 C 899.59 671.91 902.45 668.72 905.45 667.00 C 890.17 656.95 874.33 647.78 858.94 637.92 C 855.88 639.69 852.87 641.53 849.87 643.39 M 832.80 654.13 C 848.52 663.79 864.08 673.73 879.90 683.22 C 882.76 681.52 885.70 679.91 888.39 677.93 C 872.58 668.27 856.89 658.40 840.99 648.87 C 838.20 650.54 835.46 652.27 832.80 654.13 M 812.77 666.73 C 828.65 676.22 844.71 685.42 860.32 695.35 C 864.30 693.86 867.68 691.05 871.20 688.70 C 855.37 679.28 839.65 669.68 824.03 659.91 C 820.16 661.99 816.23 664.01 812.77 666.73 M 804.25 672.08 C 801.26 673.96 798.15 675.63 795.13 677.46 C 810.54 686.49 825.94 695.55 841.17 704.88 C 842.17 705.40 843.38 706.54 844.54 705.60 C 847.11 703.94 850.30 702.92 852.20 700.40 C 836.33 690.77 820.34 681.34 804.25 672.08 M 897.65 683.74 C 875.50 697.57 853.44 711.56 831.20 725.26 C 828.22 727.34 824.53 727.23 821.07 726.98 C 817.46 725.95 814.42 723.63 811.21 721.77 C 805.07 718.14 799.11 714.19 792.80 710.85 C 794.90 716.74 796.26 722.86 796.98 729.08 C 797.22 736.07 796.83 743.08 797.24 750.06 C 797.83 757.27 801.75 763.51 805.60 769.40 C 809.44 775.29 812.77 781.50 816.73 787.31 C 818.63 790.19 821.47 792.70 824.99 793.24 C 828.12 793.94 831.10 792.32 833.68 790.71 C 876.17 764.75 918.38 738.32 960.91 712.41 C 942.38 701.15 923.43 690.57 904.85 679.40 C 902.22 680.36 900.06 682.32 897.65 683.74 M 779.71 687.05 C 781.90 690.21 783.70 693.74 786.51 696.42 C 791.12 699.63 796.15 702.19 800.97 705.07 C 808.64 709.40 815.93 714.43 823.92 718.19 C 827.90 716.17 831.89 714.03 835.32 711.14 C 819.41 701.90 803.56 692.53 787.76 683.12 C 784.80 682.91 782.33 685.78 779.71 687.05 Z" />
<path fill="#2b3841" opacity="1.00" d=" M 412.29 295.13 C 416.91 294.34 421.37 296.63 425.32 298.77 C 550.27 373.02 675.41 446.95 799.60 522.45 C 802.01 523.94 805.11 525.80 805.06 529.02 C 805.54 532.33 802.41 534.45 800.05 536.10 C 763.23 558.51 726.74 581.45 689.96 603.92 C 684.13 607.73 676.17 607.31 670.42 603.54 C 634.28 581.29 597.82 559.56 561.52 537.57 C 472.58 483.47 383.70 429.29 294.77 375.18 C 293.13 374.16 291.55 372.78 290.98 370.87 C 290.48 368.71 292.08 366.85 293.77 365.78 C 329.36 344.81 364.74 323.48 400.03 302.01 C 404.06 299.63 407.84 296.72 412.29 295.13 M 410.31 306.40 C 391.66 318.17 372.63 329.33 353.81 340.82 C 337.47 350.65 321.18 360.59 304.60 370.02 C 317.35 378.16 330.44 385.76 343.32 393.68 C 409.54 434.64 476.27 474.78 542.80 515.23 C 574.90 534.84 607.33 553.90 639.48 573.43 C 652.01 580.83 664.14 588.89 676.66 596.30 C 679.69 598.29 683.60 597.27 686.34 595.27 C 721.90 573.16 757.71 551.46 793.15 529.17 C 696.41 471.01 599.73 412.74 502.39 355.57 C 474.48 339.27 446.63 322.84 419.06 305.95 C 416.36 304.12 412.83 304.39 410.31 306.40 Z" />
<path fill="#2b3841" opacity="1.00" d=" M 173.42 306.43 C 175.10 305.66 176.75 307.08 178.23 307.74 C 195.13 317.85 212.04 327.97 229.04 337.93 C 230.80 339.15 233.27 340.56 233.08 343.05 C 233.58 345.62 231.39 347.84 228.94 348.08 C 227.18 347.81 225.69 346.71 224.14 345.91 C 206.85 335.49 189.29 325.52 172.15 314.89 C 168.58 312.97 169.76 307.42 173.42 306.43 Z" />
<path fill="#2b3841" opacity="1.00" d=" M 414.26 337.16 C 418.73 336.19 423.24 337.59 427.05 339.95 C 441.48 348.59 456.08 356.95 470.61 365.44 C 473.05 366.85 475.85 368.76 475.94 371.91 C 475.25 375.21 471.85 376.60 469.42 378.45 C 453.67 388.86 437.58 398.73 421.47 408.56 C 418.78 410.36 415.29 411.60 412.23 409.90 C 395.57 400.65 379.34 390.60 362.62 381.47 C 360.01 379.78 355.44 378.96 355.71 375.04 C 355.61 372.49 358.19 371.20 359.95 369.87 C 375.19 360.47 390.43 351.07 405.67 341.68 C 408.42 339.97 411.19 338.24 414.26 337.16 M 405.19 352.57 C 408.47 354.69 411.72 357.43 412.50 361.47 C 413.33 367.05 410.36 372.86 405.39 375.55 C 400.44 378.74 394.37 378.52 388.91 380.12 C 388.87 382.18 388.26 384.59 389.47 386.41 C 391.44 387.79 393.60 388.85 395.69 390.04 C 395.68 385.27 400.00 382.50 403.90 380.85 C 407.77 379.04 412.32 379.82 416.13 377.86 C 415.95 375.23 414.50 372.45 415.74 369.89 C 417.64 365.00 423.21 362.88 428.01 362.09 C 432.25 362.16 436.63 361.24 439.93 358.42 C 436.19 356.36 432.53 354.18 428.88 351.97 C 427.11 354.18 425.47 357.04 422.34 357.37 C 419.08 358.84 414.98 355.71 416.01 352.16 C 417.06 349.97 419.18 348.63 421.00 347.15 C 419.71 346.74 418.44 346.24 417.11 346.03 C 412.87 347.67 409.25 350.56 405.19 352.57 M 394.69 359.70 C 386.38 364.81 377.76 369.44 369.67 374.89 C 372.75 376.76 375.90 378.51 379.08 380.20 C 379.86 377.83 380.51 375.18 382.66 373.63 C 387.42 369.31 394.73 371.57 399.78 367.76 C 401.37 366.58 404.06 364.69 402.60 362.44 C 400.74 360.37 397.43 357.35 394.69 359.70 M 435.96 370.15 C 432.26 370.61 428.19 370.17 424.90 372.22 C 425.33 376.07 426.87 380.58 423.85 383.82 C 420.16 388.40 413.80 387.56 408.68 388.73 C 405.76 389.31 404.65 392.26 404.26 394.87 C 407.81 397.08 411.54 398.99 415.10 401.19 C 422.55 397.03 429.69 392.33 437.00 387.93 C 438.21 387.20 439.47 386.47 440.30 385.29 C 437.75 384.92 434.46 385.62 432.78 383.16 C 431.79 382.05 432.00 380.52 431.86 379.17 C 433.12 378.26 434.25 376.76 436.00 376.96 C 440.90 376.47 445.72 377.86 450.16 379.86 C 454.38 377.27 458.57 374.63 462.75 371.97 C 458.26 369.08 453.46 366.72 448.97 363.84 C 445.34 367.07 440.97 369.99 435.96 370.15 Z" />
<path fill="#2b3841" opacity="1.00" d=" M 499.00 401.14 C 499.84 398.55 502.82 397.81 505.13 397.12 C 514.05 395.93 523.71 398.40 530.30 404.71 C 534.18 408.34 534.32 414.27 537.90 418.10 C 542.37 422.47 549.06 423.47 555.06 422.84 C 563.71 421.86 572.66 426.81 576.56 434.57 C 578.97 438.92 579.86 444.70 584.64 447.24 C 591.55 451.82 600.36 449.17 607.80 452.12 C 611.19 453.50 614.81 455.10 616.87 458.30 C 617.67 460.83 616.92 463.43 614.86 465.09 C 609.18 466.05 605.65 459.95 600.01 460.08 C 591.38 460.33 581.93 458.82 575.66 452.35 C 570.10 447.62 570.36 438.97 564.23 434.71 C 559.97 431.08 554.12 432.12 548.98 432.03 C 540.89 432.65 532.91 428.25 528.44 421.60 C 526.59 418.67 525.60 415.29 523.70 412.39 C 519.60 407.14 512.30 405.21 505.90 406.24 C 503.86 406.42 501.27 407.15 499.73 405.34 C 498.49 404.34 499.02 402.50 499.00 401.14 Z" />
<path fill="#2b3841" opacity="1.00" d=" M 468.24 419.21 C 471.76 418.49 475.37 419.31 478.89 419.70 C 487.31 419.88 496.20 424.18 500.04 431.97 C 502.52 436.28 504.16 441.70 509.01 443.98 C 515.06 446.47 521.95 443.53 528.04 445.98 C 535.43 448.89 542.06 454.64 544.78 462.26 C 546.10 465.87 548.71 469.16 552.28 470.75 C 558.39 473.42 565.32 471.31 571.59 473.38 C 576.02 474.85 580.60 476.80 583.83 480.29 C 586.16 482.95 584.53 487.86 580.89 488.05 C 576.72 488.77 574.25 484.53 570.57 483.42 C 566.30 481.32 561.50 482.20 556.94 481.98 C 551.32 481.46 545.95 479.02 541.78 475.23 C 536.18 470.08 535.86 461.05 529.00 457.02 C 523.67 453.34 517.01 455.11 511.03 454.27 C 504.16 453.74 497.95 449.18 495.00 443.02 C 492.79 438.52 490.56 433.50 485.81 431.17 C 480.45 428.04 474.11 429.19 468.24 428.90 C 466.69 427.69 464.64 426.23 464.95 424.00 C 464.91 421.92 466.44 420.09 468.24 419.21 Z" />
<path fill="#2b3841" opacity="1.00" d=" M 391.39 500.48 C 400.73 498.19 410.76 500.22 418.98 505.03 C 471.38 536.65 523.76 568.29 576.24 599.76 C 589.97 607.32 603.22 616.69 612.18 629.78 C 618.61 639.60 623.43 651.11 623.04 663.02 C 623.56 672.55 617.81 682.00 609.36 686.34 C 603.97 689.10 597.64 690.70 591.63 689.30 C 581.41 687.89 572.37 682.63 563.78 677.26 C 529.03 655.89 493.88 635.18 459.02 614.00 C 442.19 603.85 425.38 593.65 408.50 583.57 C 393.65 575.16 381.02 562.17 374.87 546.07 C 371.67 537.19 369.93 527.21 373.01 518.05 C 375.68 509.57 382.82 502.79 391.39 500.48 M 394.39 509.49 C 389.08 511.06 384.29 514.90 382.26 520.13 C 380.25 524.75 380.71 529.96 381.21 534.84 C 384.69 550.98 395.91 564.66 409.79 573.21 C 463.35 605.68 517.07 637.88 570.70 670.24 C 578.92 675.38 588.06 680.70 598.12 679.97 C 604.65 679.59 610.69 675.05 612.81 668.84 C 615.24 663.06 613.49 656.69 611.98 650.91 C 607.10 634.24 593.97 621.34 579.37 612.66 C 560.21 601.17 541.22 589.39 522.04 577.94 C 486.10 556.66 450.54 534.77 414.68 513.39 C 408.71 509.64 401.32 507.80 394.39 509.49 Z" />
<path fill="#2b3841" opacity="1.00" d=" M 418.43 528.37 C 420.62 527.54 424.08 527.35 425.21 529.95 C 426.20 531.41 426.82 533.17 426.62 534.97 C 425.97 546.28 426.28 557.62 426.22 568.94 C 426.58 572.08 422.63 572.87 420.53 571.54 C 417.99 570.01 417.02 566.86 416.99 564.05 C 416.99 553.36 417.01 542.66 416.98 531.96 C 416.75 530.54 417.49 529.34 418.43 528.37 Z" />
<path fill="#2b3841" opacity="1.00" d=" M 433.92 539.11 C 436.54 534.95 442.80 537.68 443.01 542.05 C 443.04 554.30 442.94 566.55 443.04 578.80 C 440.31 583.28 433.35 579.72 433.90 575.03 C 433.82 563.06 433.55 551.08 433.92 539.11 Z" />
<path fill="#2b3841" opacity="1.00" d=" M 452.52 548.39 C 455.71 546.79 459.67 549.75 459.81 553.15 C 459.87 565.33 459.67 577.52 459.86 589.71 C 459.17 590.50 458.49 591.29 457.80 592.09 C 454.13 592.95 450.62 590.65 450.35 586.82 C 449.72 576.22 450.38 565.56 450.11 554.94 C 450.23 552.68 449.93 549.35 452.52 548.39 Z" />
<path fill="#2b3841" opacity="1.00" d=" M 467.20 561.02 C 466.97 558.51 469.46 556.66 471.80 557.10 C 474.79 557.93 477.03 560.79 476.85 563.94 C 476.81 574.64 476.79 585.33 476.73 596.03 C 476.79 598.19 476.31 600.38 474.97 602.12 C 471.31 602.81 467.40 600.64 467.49 596.60 C 466.78 584.76 467.38 572.87 467.20 561.02 Z" />
<path fill="#2b3841" opacity="1.00" d=" M 486.22 567.01 C 490.02 565.96 493.79 569.10 493.66 573.00 C 493.51 584.66 493.56 596.33 493.54 607.99 C 493.49 609.57 493.05 612.29 490.90 612.05 C 486.80 612.93 483.93 608.73 484.01 605.05 C 483.98 594.02 484.00 582.98 484.00 571.95 C 483.83 570.02 484.71 568.18 486.22 567.01 Z" />
<path fill="#2b3841" opacity="1.00" d=" M 500.94 578.05 C 503.26 574.12 508.95 576.45 509.98 580.12 C 510.06 593.07 509.96 606.01 510.02 618.96 C 510.25 620.53 508.29 621.47 506.99 621.62 C 503.89 621.59 501.54 618.80 501.03 615.93 C 500.91 603.30 501.10 590.67 500.94 578.05 Z" />
<path fill="#2b3841" opacity="1.00" d=" M 519.17 587.20 C 523.24 584.98 528.42 588.39 528.04 592.94 C 527.79 603.65 527.74 614.35 527.74 625.06 C 527.55 627.08 527.96 629.73 526.10 631.11 C 524.31 632.84 521.06 632.16 519.78 630.16 C 518.53 628.37 518.36 626.12 518.40 624.02 C 518.59 613.68 518.50 603.34 518.46 593.00 C 518.41 591.03 518.73 589.10 519.17 587.20 Z" />
<path fill="#2b3841" opacity="1.00" d=" M 537.33 598.13 C 540.46 596.64 544.84 598.33 544.99 602.07 C 545.02 615.02 545.00 627.98 544.99 640.93 C 545.11 642.53 543.26 643.34 541.95 643.61 C 538.67 643.57 535.49 640.40 535.96 637.05 C 536.02 625.04 535.99 613.03 535.98 601.02 C 535.88 599.80 536.33 598.84 537.33 598.13 Z" />
<path fill="#2b3841" opacity="1.00" d=" M 552.69 613.94 C 552.44 611.81 553.49 608.91 556.01 608.94 C 558.80 608.39 560.92 610.83 561.95 613.12 C 562.11 625.09 561.92 637.08 562.03 649.06 C 561.94 650.43 562.36 652.11 561.10 653.12 C 559.88 654.59 557.79 653.86 556.15 654.09 C 554.54 652.43 552.67 650.53 552.92 648.02 C 552.65 636.66 552.88 625.30 552.69 613.94 Z" />
<path fill="#2b3841" opacity="1.00" d=" M 569.56 622.08 C 569.48 618.81 573.25 618.30 575.62 619.30 C 577.57 620.46 579.10 622.65 579.02 624.99 C 578.98 636.33 579.01 647.67 579.01 659.01 C 579.19 660.70 577.72 661.84 576.87 663.11 C 572.60 664.01 569.17 660.08 569.56 655.97 C 569.42 644.68 569.35 633.37 569.56 622.08 Z" />
</g>
<g id="#f1a64fff">
<path fill="#f1a64f" opacity="1.00" d=" M 651.42 490.39 C 669.35 482.18 693.37 488.51 703.21 506.10 C 679.70 516.59 656.00 526.66 632.57 537.33 C 629.02 531.36 628.39 524.07 629.25 517.30 C 631.21 505.19 640.35 495.16 651.42 490.39 Z" />
</g>
<g id="#2771b3ff">
<path fill="#2771b3" opacity="1.00" d=" M 632.57 537.33 C 656.00 526.66 679.70 516.59 703.21 506.10 C 707.17 513.13 708.01 521.56 706.37 529.39 C 703.43 541.72 693.29 551.55 681.39 555.42 C 663.75 561.49 640.81 554.98 632.57 537.33 Z" />
</g>
<g id="#30a67cff">
<path fill="#30a67c" opacity="1.00" d=" M 809.08 585.08 C 809.75 584.48 810.45 584.43 811.18 584.95 C 827.86 595.63 844.76 605.96 861.69 616.24 C 864.01 617.59 866.40 618.90 868.34 620.81 C 845.68 634.91 823.01 649.03 800.56 663.48 C 792.29 668.63 784.09 673.90 775.68 678.81 C 774.74 679.16 773.56 680.33 772.60 679.42 C 767.44 675.56 762.50 671.36 756.95 668.04 C 743.63 659.99 730.29 651.98 716.88 644.09 C 715.12 643.19 717.22 641.69 718.18 641.23 C 748.55 622.63 778.82 603.86 809.08 585.08 Z" />
</g>
<g id="#ffcf74ff">
<path fill="#ffcf74" opacity="1.00" d=" M 867.21 632.48 C 870.37 630.14 873.66 627.98 876.98 625.86 C 890.47 634.08 903.86 642.46 917.31 650.74 C 919.49 652.24 922.31 653.03 924.06 655.05 C 921.04 657.67 917.44 659.54 914.13 661.76 C 898.62 651.79 882.90 642.15 867.21 632.48 Z" />
<path fill="#ffcf74" opacity="1.00" d=" M 849.87 643.39 C 852.87 641.53 855.88 639.69 858.94 637.92 C 874.33 647.78 890.17 656.95 905.45 667.00 C 902.45 668.72 899.59 671.91 896.17 672.12 C 880.61 662.76 865.31 652.95 849.87 643.39 Z" />
<path fill="#ffcf74" opacity="1.00" d=" M 832.80 654.13 C 835.46 652.27 838.20 650.54 840.99 648.87 C 856.89 658.40 872.58 668.27 888.39 677.93 C 885.70 679.91 882.76 681.52 879.90 683.22 C 864.08 673.73 848.52 663.79 832.80 654.13 Z" />
<path fill="#ffcf74" opacity="1.00" d=" M 812.77 666.73 C 816.23 664.01 820.16 661.99 824.03 659.91 C 839.65 669.68 855.37 679.28 871.20 688.70 C 867.68 691.05 864.30 693.86 860.32 695.35 C 844.71 685.42 828.65 676.22 812.77 666.73 Z" />
<path fill="#ffcf74" opacity="1.00" d=" M 804.25 672.08 C 820.34 681.34 836.33 690.77 852.20 700.40 C 850.30 702.92 847.11 703.94 844.54 705.60 C 843.38 706.54 842.17 705.40 841.17 704.88 C 825.94 695.55 810.54 686.49 795.13 677.46 C 798.15 675.63 801.26 673.96 804.25 672.08 Z" />
<path fill="#ffcf74" opacity="1.00" d=" M 779.71 687.05 C 782.33 685.78 784.80 682.91 787.76 683.12 C 803.56 692.53 819.41 701.90 835.32 711.14 C 831.89 714.03 827.90 716.17 823.92 718.19 C 815.93 714.43 808.64 709.40 800.97 705.07 C 796.15 702.19 791.12 699.63 786.51 696.42 C 783.70 693.74 781.90 690.21 779.71 687.05 Z" />
</g>
</svg>
